<svg xmlns="http://www.w3.org/2000/svg" version="1.1" xmlns:xlink="http://www.w3.org/1999/xlink" width="512" height="512" x="0" y="0" viewBox="0 0 682.667 682.667" style="enable-background:new 0 0 512 512" xml:space="preserve" class=""><g><defs><clipPath id="a" clipPathUnits="userSpaceOnUse"><path d="M0 512h512V0H0Z" fill="#006b5f" opacity="1" data-original="#000000" class=""></path></clipPath></defs><g clip-path="url(#a)" transform="matrix(1.33333 0 0 -1.33333 0 682.667)"><path d="M0 0c-28.521-3.298-58.813-14.223-86.545-41.955-53.217-53.217-44.56-115.862-38.832-157.316 5.23-37.854 4.464-46.757-4.815-56.037" style="stroke-width:15;stroke-linecap:round;stroke-linejoin:round;stroke-miterlimit:10;stroke-dasharray:none;stroke-opacity:1" transform="translate(257.692 382.808)" fill="none" stroke="#006b5f" stroke-width="15" stroke-linecap="round" stroke-linejoin="round" stroke-miterlimit="10" stroke-dasharray="none" stroke-opacity="" data-original="#000000" opacity="1" class=""></path><path d="M0 0c-46.862-46.862-46.863-122.842 0-169.706 46.863-46.862 122.843-46.862 169.706 0 53.216 53.217 44.56 115.862 38.832 157.316-5.23 37.854-4.465 46.757 4.815 56.037 9.28 9.281 10.046 18.184 4.815 56.038C212.44 141.139 203.784 203.784 257 257c46.863 46.863 122.843 46.863 169.706 0 46.863-46.863 46.863-122.843 0-169.705-27.733-27.733-58.025-38.658-86.545-41.955" style="stroke-width:15;stroke-linecap:round;stroke-linejoin:round;stroke-miterlimit:10;stroke-dasharray:none;stroke-opacity:1" transform="translate(42.647 212.352)" fill="none" stroke="#006b5f" stroke-width="15" stroke-linecap="round" stroke-linejoin="round" stroke-miterlimit="10" stroke-dasharray="none" stroke-opacity="" data-original="#000000" opacity="1" class=""></path><path d="M0 0c28.521 3.298 58.813 14.223 86.545 41.955 53.217 53.217 44.56 115.862 38.832 157.316-5.231 37.854-4.465 46.757 4.815 56.037" style="stroke-width:15;stroke-linecap:round;stroke-linejoin:round;stroke-miterlimit:10;stroke-dasharray:none;stroke-opacity:1" transform="translate(254.308 129.192)" fill="none" stroke="#006b5f" stroke-width="15" stroke-linecap="round" stroke-linejoin="round" stroke-miterlimit="10" stroke-dasharray="none" stroke-opacity="" data-original="#000000" opacity="1" class=""></path><path d="M0 0c-28.52-3.297-58.812-14.222-86.545-41.955" style="stroke-width:15;stroke-linecap:round;stroke-linejoin:round;stroke-miterlimit:10;stroke-dasharray:none;stroke-opacity:1" transform="translate(129.192 254.308)" fill="none" stroke="#006b5f" stroke-width="15" stroke-linecap="round" stroke-linejoin="round" stroke-miterlimit="10" stroke-dasharray="none" stroke-opacity="" data-original="#000000" opacity="1" class=""></path><path d="M0 0c16 2.779 31.432 9.676 45.829 24.072 64.25 64.25-20.604 149.103 43.646 213.353 23.432 23.431 61.422 23.431 84.854 0 23.431-23.431 23.43-61.422 0-84.853C159.932 138.176 144.5 131.28 128.5 128.5" style="stroke-width:15;stroke-linecap:round;stroke-linejoin:round;stroke-miterlimit:10;stroke-dasharray:none;stroke-opacity:1" transform="translate(252.598 189.501)" fill="none" stroke="#006b5f" stroke-width="15" stroke-linecap="round" stroke-linejoin="round" stroke-miterlimit="10" stroke-dasharray="none" stroke-opacity="" data-original="#000000" opacity="1" class=""></path><path d="M0 0c-16.001-2.779-31.433-9.676-45.828-24.072-23.432-23.431-23.432-61.422 0-84.853 23.431-23.431 61.421-23.431 84.852 0 27.601 27.601 27.683 59.004 23.892 90.942" style="stroke-width:15;stroke-linecap:round;stroke-linejoin:round;stroke-miterlimit:10;stroke-dasharray:none;stroke-opacity:1" transform="translate(130.902 193.999)" fill="none" stroke="#006b5f" stroke-width="15" stroke-linecap="round" stroke-linejoin="round" stroke-miterlimit="10" stroke-dasharray="none" stroke-opacity="" data-original="#000000" opacity="1" class=""></path><path d="M0 0c-3.79 31.938-3.708 63.341 23.892 90.942 14.396 14.396 29.828 21.293 45.829 24.072" style="stroke-width:15;stroke-linecap:round;stroke-linejoin:round;stroke-miterlimit:10;stroke-dasharray:none;stroke-opacity:1" transform="translate(189.682 207.484)" fill="none" stroke="#006b5f" stroke-width="15" stroke-linecap="round" stroke-linejoin="round" stroke-miterlimit="10" stroke-dasharray="none" stroke-opacity="" data-original="#000000" opacity="1" class=""></path><path d="M0 0c10.53 2.071 19.656 6.732 28.41 15.486 20.577 20.578 18.595 43.18 13.319 81.357-5.499 39.797-12.342 89.325 30.329 131.996 35.146 35.147 92.131 35.148 127.279 0 35.147-35.147 35.146-92.132 0-127.279-20.474-20.474-42.525-29.545-64.324-32.838" style="stroke-width:15;stroke-linecap:round;stroke-linejoin:round;stroke-miterlimit:10;stroke-dasharray:none;stroke-opacity:1" transform="translate(248.803 219.3)" fill="none" stroke="#006b5f" stroke-width="15" stroke-linecap="round" stroke-linejoin="round" stroke-miterlimit="10" stroke-dasharray="none" stroke-opacity="" data-original="#000000" opacity="1" class=""></path><path d="M0 0c21.798 3.293 43.851 12.365 64.325 32.838 42.671 42.671 35.827 92.2 30.328 131.996-5.276 38.178-7.258 60.78 13.319 81.357 11.716 11.716 30.711 11.716 42.426 0 11.716-11.715 11.716-30.711 0-42.426-8.754-8.754-17.88-13.415-28.41-15.487" style="stroke-width:15;stroke-linecap:round;stroke-linejoin:round;stroke-miterlimit:10;stroke-dasharray:none;stroke-opacity:1" transform="translate(255.315 159.522)" fill="none" stroke="#006b5f" stroke-width="15" stroke-linecap="round" stroke-linejoin="round" stroke-miterlimit="10" stroke-dasharray="none" stroke-opacity="" data-original="#000000" opacity="1" class=""></path><path d="M0 0c-10.53-2.071-19.656-6.732-28.411-15.487-11.715-11.715-11.715-30.71 0-42.426 11.716-11.716 30.711-11.715 42.427 0C34.593-37.336 32.61-14.734 27.335 23.444c-5.499 39.797-12.343 89.325 30.328 131.996 20.474 20.474 42.526 29.545 64.325 32.838" style="stroke-width:15;stroke-linecap:round;stroke-linejoin:round;stroke-miterlimit:10;stroke-dasharray:none;stroke-opacity:1" transform="translate(134.697 164.2)" fill="none" stroke="#006b5f" stroke-width="15" stroke-linecap="round" stroke-linejoin="round" stroke-miterlimit="10" stroke-dasharray="none" stroke-opacity="" data-original="#000000" opacity="1" class=""></path><path d="M0 0c-21.562-3.258-44.04-12.832-64.325-32.838-35.147-35.147-35.147-92.132 0-127.28 35.148-35.147 92.133-35.147 127.28 0 42.67 42.671 35.827 92.2 30.327 131.996-5.275 38.178-7.258 60.78 13.32 81.357 8.754 8.754 17.88 13.415 28.41 15.487" style="stroke-width:15;stroke-linecap:round;stroke-linejoin:round;stroke-miterlimit:10;stroke-dasharray:none;stroke-opacity:1" transform="translate(128.185 223.978)" fill="none" stroke="#006b5f" stroke-width="15" stroke-linecap="round" stroke-linejoin="round" stroke-miterlimit="10" stroke-dasharray="none" stroke-opacity="" data-original="#000000" opacity="1" class=""></path></g></g></svg>