<svg xmlns="http://www.w3.org/2000/svg" version="1.1" xmlns:xlink="http://www.w3.org/1999/xlink" width="512" height="512" x="0" y="0" viewBox="0 0 64 64" style="enable-background:new 0 0 512 512" xml:space="preserve"><g><path d="M62.238 45.253c-.584-.479-1.26-.8-1.975-.96-1.757-12.745-8.485-24.731-19.57-28.884.578-.744.832-1.687.647-2.63l-.26-1.35.26-1.36a3.27 3.27 0 0 0-.99-3.04l-1-.94-.59-1.25a3.305 3.305 0 0 0-2.59-1.88l-1.36-.17-1.21-.67c-1-.54-2.2-.54-3.2 0l-1.21.67-1.36.17a3.29 3.29 0 0 0-2.59 1.88l-.59 1.25-1 .94a3.27 3.27 0 0 0-.99 3.04l.26 1.36-.26 1.35c-.185.943.069 1.886.648 2.63C12.22 19.562 5.494 31.55 3.737 44.294A4.784 4.784 0 0 0 0 48.971v5.876c0 2.3 1.622 4.286 3.859 4.722a147.724 147.724 0 0 0 28.145 2.717c9.404 0 18.805-.906 28.138-2.717C62.377 59.133 64 57.147 64 54.847v-5.875a4.787 4.787 0 0 0-1.762-3.719zm-42.465 2.872v11.854c-3.193-.27-6.382-.644-9.565-1.127V46.893c3.183.526 6.372.937 9.565 1.232zm1.777.156c3.186.251 6.375.384 9.565.405v11.81c-3.19-.02-6.378-.137-9.565-.367zm11.342.405c3.19-.022 6.378-.155 9.565-.406v11.848c-3.186.231-6.375.348-9.565.368zm11.342-.563c3.193-.295 6.382-.706 9.565-1.231v11.96c-3.183.482-6.372.856-9.565 1.126zM5.717 44.27c-.055-.01-.11-.015-.165-.024a46.3 46.3 0 0 1 1.502-6.806 7.636 7.636 0 0 0 3.923-.63 149.122 149.122 0 0 0 4.026-1.95.958.958 0 0 1 1.081.143 88.45 88.45 0 0 0 2.972 2.56 7.57 7.57 0 0 0 4.823 1.733c1.397 0 2.8-.385 4.044-1.166 1.185-.743 2.368-1.52 3.528-2.302a.928.928 0 0 1 1.064 0c1.152.777 2.34 1.545 3.542 2.295 2.695 1.726 6.415 1.482 8.908-.582.995-.833 1.98-1.687 2.938-2.545a.954.954 0 0 1 1.074-.137c1.32.672 2.681 1.33 4.047 1.957 1.221.554 2.591.752 3.932.623a46.156 46.156 0 0 1 1.482 6.809c-.053.008-.105.012-.157.022-17.44 3.532-35.13 3.532-52.564 0zm4.89-15.171c.845-.41 1.664-.82 2.482-1.246 2.182-1.136 4.888-.76 6.729.936.797.735 1.622 1.47 2.46 2.191.917.792 2.27.884 3.286.22 1.04-.678 2.071-1.371 3.073-2.074 2.042-1.42 4.677-1.422 6.708-.004a94.844 94.844 0 0 0 3.061 2.082 2.77 2.77 0 0 0 3.288-.213c.863-.74 1.707-1.49 2.525-2.246a5.823 5.823 0 0 1 6.67-.89c.82.42 1.643.838 2.49 1.243a39.224 39.224 0 0 1 3 6.618 5.997 5.997 0 0 1-2.617-.517c-1.34-.614-2.68-1.262-3.977-1.923a2.717 2.717 0 0 0-3.068.395c-.943.846-1.913 1.686-2.89 2.504-1.902 1.578-4.744 1.774-6.82.446a117.905 117.905 0 0 1-3.497-2.266 2.714 2.714 0 0 0-3.053-.001c-1.144.77-2.311 1.536-3.48 2.269a5.811 5.811 0 0 1-6.79-.43 83.041 83.041 0 0 1-2.913-2.511 2.73 2.73 0 0 0-3.074-.408c-1.299.66-2.64 1.298-3.968 1.923a6.003 6.003 0 0 1-2.62.521 39.23 39.23 0 0 1 2.993-6.62h.002zm14.253-14.57c-.38-.37-.55-.9-.45-1.42l.28-1.52c.03-.11.03-.22 0-.33l-.28-1.52c-.1-.52.07-1.05.45-1.41l1.13-1.06c.08-.08.15-.17.2-.27l.66-1.4c.22-.48.67-.81 1.2-.88l1.53-.19c.12-.01.22-.05.32-.1l1.36-.75c.23-.12.48-.19.74-.19.25 0 .51.07.74.19l1.36.75c.1.05.21.09.32.1l1.53.19c.53.07.98.4 1.2.88l.66 1.4c.05.1.12.19.2.27l1.13 1.06c.38.36.55.89.45 1.41l-.28 1.52c-.03.11-.03.22 0 .33l.28 1.52c.1.52-.07 1.05-.46 1.42l-.295.278A24.948 24.948 0 0 0 32 13.869c-2.427 0-4.705.334-6.84.94zm7.14 1.12c8.39 0 14.95 4.21 19.5 10.49.016.022.03.046.046.069-2.817-1.394-6.226-.917-8.536 1.233-.8.738-1.626 1.475-2.472 2.2a.975.975 0 0 1-1.161.074 87.865 87.865 0 0 1-3.007-2.047c-2.656-1.852-6.09-1.853-8.752 0-.988.693-2.002 1.377-3.024 2.043a.963.963 0 0 1-1.155-.077 97.925 97.925 0 0 1-2.416-2.153c-2.33-2.145-5.727-2.647-8.532-1.3C17.036 19.876 23.598 15.65 32 15.65zM1.778 54.847v-5.875a3.013 3.013 0 0 1 2.994-3.018c.197 0 .396.02.593.06 1.02.206 2.043.398 3.066.581v11.978a148.106 148.106 0 0 1-4.233-.75c-1.403-.273-2.42-1.525-2.42-2.976zm60.444 0c0 1.451-1.017 2.703-2.42 2.975-1.407.273-2.816.518-4.226.75V46.593c1.02-.182 2.04-.373 3.06-.58a2.97 2.97 0 0 1 2.477.617 3.015 3.015 0 0 1 1.11 2.342z" fill="#006b5f" opacity="1" data-original="#000000"></path></g></svg>