<svg xmlns="http://www.w3.org/2000/svg" version="1.1" xmlns:xlink="http://www.w3.org/1999/xlink" width="512" height="512" x="0" y="0" viewBox="0 0 60 60" style="enable-background:new 0 0 512 512" xml:space="preserve"><g><path d="M27 54a26.791 26.791 0 0 0 8.805-1.469 193.125 193.125 0 0 0-2.6 4.9 1.749 1.749 0 0 0 2.35 2.369c4.845-2.475 16.684-8.8 22.06-13.99a7.527 7.527 0 0 0 .717-10.192 7.26 7.26 0 0 0-5.033-2.58A26.672 26.672 0 0 0 54 27a27 27 0 1 0-27 27zm29.806-17.1a5.521 5.521 0 0 1-.581 7.469c-4.951 4.78-15.778 10.652-20.9 13.3 2.7-5.209 8.721-16.254 13.546-21.08A5.455 5.455 0 0 1 52.714 35c.077 0 .155 0 .233.005a5.3 5.3 0 0 1 3.859 1.895zM27 2a25.028 25.028 0 0 1 25 25 24.546 24.546 0 0 1-.791 6.164 7.452 7.452 0 0 0-3.746 2.009c-3.311 3.312-7.109 9.336-10.1 14.575A24.736 24.736 0 0 1 27 52a25 25 0 0 1 0-50z" fill="#006b5f" opacity="1" data-original="#000000"></path><path d="M26.046 6.021a20.933 20.933 0 0 1 1.908 0H28a1 1 0 0 0 .045-2c-.693-.031-1.4-.031-2.092 0A1 1 0 0 0 25 5.068a1.016 1.016 0 0 0 1.046.953zM18.544 7.69a.987.987 0 0 0 .385-.077q.438-.183.889-.347t.9-.306a1 1 0 0 0-.6-1.908 24.308 24.308 0 0 0-1.965.715 1 1 0 0 0 .385 1.923zM12.107 11.807a.992.992 0 0 0 .677-.264c.234-.214.472-.424.717-.63s.5-.405.747-.6a1 1 0 0 0-1.219-1.587 23.46 23.46 0 0 0-1.598 1.343 1 1 0 0 0 .676 1.736zM7.006 17.765a1 1 0 0 0 1.348-.426c.147-.282.3-.563.458-.838s.327-.55.5-.818a1 1 0 0 0-1.686-1.076q-.279.437-.543.894c-.175.3-.342.607-.5.915a1 1 0 0 0 .423 1.349zM5.053 25.16a.97.97 0 0 0 .131.008 1 1 0 0 0 .99-.87 20.98 20.98 0 0 1 .332-1.881 1 1 0 1 0-1.951-.436 21.937 21.937 0 0 0-.364 2.058 1 1 0 0 0 .862 1.121zM6.506 31.583c-.068-.309-.131-.622-.187-.935s-.1-.631-.145-.946a1 1 0 0 0-1.983.259c.045.343.1.687.159 1.034s.129.686.205 1.024a1 1 0 0 0 .974.782 1.02 1.02 0 0 0 .219-.024 1 1 0 0 0 .758-1.194zM9.31 38.317c-.171-.268-.336-.541-.5-.816s-.312-.558-.459-.84a1 1 0 0 0-1.775.923c.16.308.327.612.5.917s.356.6.542.892a1 1 0 1 0 1.692-1.076zM12.216 44.619c.267.225.54.443.813.653a1 1 0 0 0 1.219-1.587q-.378-.29-.747-.6a22.885 22.885 0 0 1-.717-.63 1 1 0 1 0-1.353 1.472q.383.355.785.692zM20.722 47.04q-.453-.142-.905-.307t-.888-.346a1 1 0 0 0-.77 1.846q.48.2.974.38t.991.335a1 1 0 0 0 .6-1.908zM27.954 47.979c-.631.029-1.277.029-1.908 0a1.011 1.011 0 0 0-1.046.953 1 1 0 0 0 .953 1.045 24.37 24.37 0 0 0 2.092 0 1 1 0 1 0-.092-2zM35.071 46.387q-.438.183-.889.347t-.9.306a1 1 0 1 0 .6 1.908 24.308 24.308 0 0 0 1.965-.715 1 1 0 1 0-.77-1.846zM48.947 28.84a1 1 0 0 0-1.121.862 20.98 20.98 0 0 1-.332 1.881 1 1 0 0 0 .758 1.194 1.02 1.02 0 0 0 .219.024 1 1 0 0 0 .974-.782 21.937 21.937 0 0 0 .364-2.058 1 1 0 0 0-.862-1.121zM47.494 22.417c.068.309.131.622.187.935s.1.631.145.946a1 1 0 0 0 .99.87.97.97 0 0 0 .131-.008 1 1 0 0 0 .862-1.121 26.875 26.875 0 0 0-.359-2.058 1 1 0 1 0-1.951.436zM45.187 16.5c.159.277.312.558.459.84a1 1 0 0 0 1.775-.923c-.16-.308-.327-.612-.5-.917s-.356-.6-.542-.892a1 1 0 1 0-1.686 1.076c.168.267.333.54.494.816zM40.5 10.913c.245.206.483.416.717.63a1 1 0 1 0 1.353-1.472q-.383-.352-.785-.69a23.46 23.46 0 0 0-.813-.653 1 1 0 0 0-1.219 1.587q.377.285.747.598zM33.278 6.96q.453.142.905.307t.888.346a.987.987 0 0 0 .385.077 1 1 0 0 0 .385-1.923q-.48-.2-.974-.38t-.991-.335a1 1 0 0 0-.6 1.908zM51.293 41.707a1 1 0 0 0 1.414 0l2-2a1 1 0 0 0-1.414-1.414l-2 2a1 1 0 0 0 0 1.414zM22.7 39.047q1.224 1.088 2.555 2.282a2.594 2.594 0 0 0 3.482 0q1.329-1.2 2.555-2.282C37.742 33.317 42 29.532 42 24c0-5.132-3.439-9-8-9a8.69 8.69 0 0 0-7 3.717A8.69 8.69 0 0 0 20 15c-4.561 0-8 3.871-8 9 0 5.532 4.258 9.317 10.7 15.047zM20 17c4.134 0 6.018 3.862 6.1 4.027a1 1 0 0 0 .9.572 1 1 0 0 0 .9-.572C27.982 20.862 29.866 17 34 17c3.421 0 6 3.011 6 7 0 4.631-3.991 8.179-10.032 13.549q-1.23 1.092-2.567 2.292a.6.6 0 0 1-.8 0q-1.337-1.2-2.567-2.292C17.991 32.182 14 28.634 14 24c0-3.989 2.579-7 6-7z" fill="#006b5f" opacity="1" data-original="#000000"></path></g></svg>