<svg xmlns="http://www.w3.org/2000/svg" version="1.1" xmlns:xlink="http://www.w3.org/1999/xlink" width="512" height="512" x="0" y="0" viewBox="0 0 64 64" style="enable-background:new 0 0 512 512" xml:space="preserve"><g><path d="M58.323 33.196a2.998 2.998 0 0 0 1.743-3.452 2.982 2.982 0 0 0-1.349-1.858 2.964 2.964 0 0 0-1.889-.412l-.776-2.97a2.993 2.993 0 0 0 1.914-3.511c-.369-1.541-1.875-2.504-3.417-2.244l-1.376-5.267a42.651 42.651 0 0 0 2.05-.396l4.992-1.109a1.001 1.001 0 0 0 .002-1.953l-4.992-1.109a42.15 42.15 0 0 0-3.729-.643 42.128 42.128 0 0 0-1.354-3.114L47.898.562A1 1 0 0 0 46 1.017l.086 5.113c.01.591.039 1.183.074 1.774l-5.18-.105A2.995 2.995 0 0 0 38 5a2.994 2.994 0 0 0-2.968 2.68l-3.071-.061A2.993 2.993 0 0 0 29 5a3 3 0 0 0-2.95 2.501L4.02 7.06a3.875 3.875 0 0 0-2.837 1.126C.42 8.933 0 9.932 0 11s.42 2.067 1.183 2.814a3.908 3.908 0 0 0 2.755 1.126h.082L26 14.5v4.2a10.476 10.476 0 0 0-6.037 2.816L2.211 38.462A7.174 7.174 0 0 0 0 43.628a7.107 7.107 0 0 0 3.308 6.025l5.844 3.719A10.388 10.388 0 0 0 14.74 55h3.038c1.299 0 2.599.307 3.761.888l2.026 1.013A10.471 10.471 0 0 0 28.222 58c3.31 0 6.452-1.595 8.405-4.268l13.424-18.37c.037-.05.068-.103.103-.154l1.374-.33 4.7 21.477a3.916 3.916 0 0 0 1.757 2.497 3.919 3.919 0 0 0 3.012.493c1.038-.249 1.912-.891 2.461-1.806s.702-1.989.433-3.021zm-.201-2.985a1.002 1.002 0 0 1-.739 1.207l-10.696 2.566a.994.994 0 0 1-.756-.12.989.989 0 0 1-.45-.619 1.003 1.003 0 0 1 .74-1.206l10.696-2.566a1.002 1.002 0 0 1 1.205.738zm-7.959-3.622-.379-.548 4.332-1.039.758 2.904-3.676.882a7.6 7.6 0 0 0-1.035-2.199zm5.859-5.13c.062.26.02.528-.12.756s-.359.387-.62.45l-10.696 2.566c-.536.126-1.077-.202-1.206-.739s.203-1.078.739-1.207l10.696-2.566a1.003 1.003 0 0 1 1.207.74zm-1.231-10.592.599.133-.6.133c-.711.158-1.435.291-2.161.411a42.129 42.129 0 0 0-.362-1.144c.847.132 1.692.282 2.524.467zm-6.446-4.833a40.281 40.281 0 0 1 2.77 7.476l1.485 5.686-2.333.56-1.257-5.741a40.302 40.302 0 0 1-.924-7.918l-.01-.614zm-.024 14.188-2.2.528-.251-.363A7.102 7.102 0 0 0 41 17.399V14.2l5.915-.119.071-.002c.025.12.044.242.07.363zm-1.704-8.135L41 12.2V9.8l5.328.107c.078.73.173 1.457.289 2.18zM37 8c0-.551.449-1 1-1s1 .449 1 1v11c0 .551-.449 1-1 1s-1-.449-1-1zm-5 10.095V14.38l3-.06v3.475zm3-5.776-3 .06V9.621l3 .06zM28 8c0-.551.449-1 1-1s1 .449 1 1v11c0 .551-.449 1-1 1s-1-.449-1-1zM3.979 12.94a1.901 1.901 0 0 1-1.397-.554C2.207 12.018 2 11.526 2 11s.207-1.018.583-1.386.876-.576 1.396-.554L26 9.5v3zM24.46 55.112l-2.026-1.013A10.464 10.464 0 0 0 17.778 53H14.74a8.396 8.396 0 0 1-4.515-1.315l-5.844-3.719A5.116 5.116 0 0 1 2 43.628c0-1.398.58-2.754 1.592-3.72L5.591 38h5.968a1 1 0 0 1 .949.684l1.025 3.077a3.008 3.008 0 0 0 3.218 2.028l4.746-.594c.47-.055.922.225 1.073.677l1.025 3.077A2.996 2.996 0 0 0 26.441 49h3.622c.297 0 .577.131.768.36l3.409 4.09A8.438 8.438 0 0 1 28.222 56a8.458 8.458 0 0 1-3.762-.888zm11.058-3.252-3.15-3.78A2.992 2.992 0 0 0 30.063 47h-3.622a1 1 0 0 1-.949-.684l-1.025-3.077a3.005 3.005 0 0 0-3.218-2.028l-4.746.594a1.005 1.005 0 0 1-1.073-.677l-1.025-3.077A2.996 2.996 0 0 0 11.559 36H7.686l6.286-6h3.587a1 1 0 0 1 .949.684l1.025 3.077a3.006 3.006 0 0 0 3.218 2.028l4.746-.594c.47-.06.922.225 1.073.677l1.025 3.077A2.996 2.996 0 0 0 32.441 41h3.622c.297 0 .577.131.768.36l3.388 4.066zm5.918-8.099-3.068-3.682A2.994 2.994 0 0 0 36.063 39h-3.622a1 1 0 0 1-.949-.684l-1.025-3.077a3.003 3.003 0 0 0-3.218-2.028l-4.746.594a1.009 1.009 0 0 1-1.073-.677l-1.025-3.077A2.996 2.996 0 0 0 17.559 28h-1.491l5.277-5.037c.378-.361.791-.68 1.227-.963h.987a1 1 0 0 1 .949.684l1.025 3.077a3.01 3.01 0 0 0 3.218 2.028l4.746-.594c.469-.059.922.225 1.073.677l1.025 3.077A2.996 2.996 0 0 0 38.441 33h3.622a1 1 0 0 0 0-2h-3.622a1 1 0 0 1-.949-.684l-1.025-3.077a3.004 3.004 0 0 0-3.218-2.028l-4.746.594a1.011 1.011 0 0 1-1.073-.677l-1.025-3.077c-.167-.5-.46-.928-.831-1.266.249-.048.5-.088.754-.113l.174-.017A2.996 2.996 0 0 0 29 22a3 3 0 0 0 2.776-1.873l3.344-.334A2.995 2.995 0 0 0 38 22a2.995 2.995 0 0 0 2.959-2.593c1.207.211 2.285.878 3.055 1.849l-.36.086a3.005 3.005 0 0 0-2.218 3.617 3.005 3.005 0 0 0 3.617 2.217l2.644-.634.821 1.186c.323.466.565.985.732 1.527l-3.498.839a3.005 3.005 0 0 0-2.218 3.617 2.982 2.982 0 0 0 1.349 1.858 2.99 2.99 0 0 0 2.268.359l.009-.002zM61.743 56.51a1.93 1.93 0 0 1-1.212.89 1.92 1.92 0 0 1-1.483-.243 1.93 1.93 0 0 1-.865-1.229l-4.709-21.516 2.917-.7 5.566 21.311a1.929 1.929 0 0 1-.214 1.487z" fill="#006b5f" opacity="1" data-original="#000000"></path></g></svg>