<svg xmlns="http://www.w3.org/2000/svg" version="1.1" xmlns:xlink="http://www.w3.org/1999/xlink" width="512" height="512" x="0" y="0" viewBox="0 0 504 503" style="enable-background:new 0 0 512 512" xml:space="preserve" class=""><g><path fill="#ffffff" d="M372 192.645c0 99.41-80.59 180-180 180s-180-80.59-180-180 80.59-180 180-180 180 80.59 180 180zm0 0" opacity="1" data-original="#ffffff"></path><g fill="#444b54"><path d="M448 360.645h-5.602c-9.199 0-18-5.2-22.398-13.2l-.398-.402c-8.801-16-25.204-25.598-43.602-25.598s-34.8 9.598-43.602 25.598l-.398.402c-4.398 8.399-13.2 13.2-22.398 13.2-14 0-25.602-11.602-25.602-25.602v-34.398c0-108.801-56.8-209.602-149.2-266 14-5.2 29.2-8.399 44.4-9.602 86.8 52 140.8 146.8 140.8 248 0 10.402 6.8 18.8 16.398 21.203 10 2.399 20-2 24.801-10.8 16.801-31.2 24.403-66.403 22.403-102.403C378 83.843 297.199 4.645 199.602.645 146.8-1.355 96.8 17.445 58.8 54.246 20.8 90.645 0 139.844 0 192.645c0 106 86 192 192 192h.398l13.602-.399c6-.402 10.8-4.8 11.602-10.402 1.597-13.598 2.796-27.2 2.796-41.2C220.398 227.044 166 127.446 77.2 70.247c9.602-9.203 20.403-16.8 31.602-23.203.398.402 1.199.402 1.597.8C202.398 98.247 260 195.446 260 300.646v34.398c0 27.602 22.398 49.602 49.602 49.602 18 0 34.796-10 43.597-25.602l.403-.398c4.398-8.399 13.199-13.2 22.398-13.2 9.602 0 18 4.801 22.398 13.2l.403.398c8.8 16 25.597 25.602 43.597 25.602H448c6.8 0 12-5.2 12-12s-5.2-12-12-12zm-88.398-178c1.597 28.398-3.602 56.8-16 82-2.403-92.399-46.403-179.2-118-236.399 72.796 14.797 129.597 78.399 134 154.399zm-165.204 118.8C141.2 289.445 92.801 263.043 54 224.246c-6.398-6.402-12.398-12.8-18-19.601l-12-16c.398-14.801 2.398-29.2 6.398-43.2 8.801 11.598 18.403 22.801 28.801 33.2 35.2 35.199 78.801 61.601 126 76.8 4.403 15.2 7.2 30.399 9.2 46zm.403 59.2H192c-78.8 0-144.8-54.399-162.8-127.602 2.402 2.8 5.198 5.602 8 8.402 43.6 43.598 98.8 73.2 159.198 85.2v6.398c-.398 8.8-.796 18.402-1.597 27.602zm-19.2-134c-36.8-14.399-70.8-36.399-99.203-64.801-12-12-23.199-25.2-32.796-39.2-.801-1.199-1.602-2-2.801-2.8 5.199-11.2 12-21.598 20-31.598 52.398 32.797 92.398 82 114.8 138.399zM504 372.645c0 6.628-5.371 12-12 12s-12-5.372-12-12c0-6.63 5.371-12 12-12s12 5.37 12 12zm0 0" fill="#00958a" opacity="1" data-original="#444b54" class=""></path></g></g></svg>